<svg id="visual" viewBox="0 0 900 600" width="900" height="600" xmlns="http://www.w3.org/2000/svg" xmlns:xlink="http://www.w3.org/1999/xlink" version="1.1"><rect x="0" y="0" width="900" height="600" fill="#001122"></rect><path d="M0 453L21.5 460.2C43 467.3 86 481.7 128.8 480.5C171.7 479.3 214.3 462.7 257.2 446.3C300 430 343 414 385.8 420C428.7 426 471.3 454 514.2 452.8C557 451.7 600 421.3 642.8 410.8C685.7 400.3 728.3 409.7 771.2 429.3C814 449 857 479 878.5 494L900 509L900 601L878.5 601C857 601 814 601 771.2 601C728.3 601 685.7 601 642.8 601C600 601 557 601 514.2 601C471.3 601 428.7 601 385.8 601C343 601 300 601 257.2 601C214.3 601 171.7 601 128.8 601C86 601 43 601 21.5 601L0 601Z" fill="#032250" stroke-linecap="round" stroke-linejoin="miter"></path></svg>